# xmcd
#
# Track frame offsets: 
#        150
#        10585
#        23087
#        35535
#        47037
#        59477
#        75285
#        84900
#        97556
#        110303
#        123537
#        141208
#        153502
#        165345
#        177381
#        189951
#        199946
#        213864
#        226047
#        240017
#        253322
#        265599
#        277928
#
# Disc length: 3878 seconds
#
# Revision: 5
# Processed by: cddbd v1.5.2PL0 Copyright (c) Steve Scherf et al.
# Submitted via: ExactAudioCopyFreeDBPlugin 1.0
#
DISCID=120f2417
DTITLE=Various Artist - A Cellarful of Motown
DYEAR=2007
DGENRE=Soul
TTITLE0=Brenda Holloway - We'll Keep On Rolling
TTITLE1=The Contours - I Can't Help Loving You, Baby
TTITLE2=J.J. Barnes - I'm Here Now That You Need Me
TTITLE3=The Originals - Judge's Daughter
TTITLE4=Debbie Dean - Something About You
TTITLE5=The Four Tops - Soldier Of Love
TTITLE6=Gladys Knight And The Pips - I'm Gonna Get You
TTITLE7=Ivy Jo Hunter - Don't Stop Loviing Me
TTITLE8=The Lollipops - Sweet, Sweet Love
TTITLE9=Jr. Walker and The All Stars - I'm Doing The Best I Can
TTITLE10=Bobby Taylor - Cindy
TTITLE11=The Marvelettes - Little Girls Grow Up
TTITLE12=The Spinners - Too Late I Learned
TTITLE13=Rita Wright - Beware Of A Stranger
TTITLE14=Edwin Starr - You Took Me This Far (Take Me All The Way)
TTITLE15=Blinky - Can I Get A Witness
TTITLE16=Bob Kayli - (There's Always Room For) Love In A Movie
TTITLE17=Paul Petersen - Farewell Is A Lonely Sound
TTITLE18=Little Miss Soul - You've Made Me So Very Happy
TTITLE19=Shorty Long - Honey Hut
TTITLE20=Little Lisa - Honey Boy
TTITLE21=The Headliners - This Is Goodbye
TTITLE22=Brenda Holloway and The Supremes - Going To A Go-Go
EXTD=YEAR: 2007
EXTT0=
EXTT1=
EXTT2=
EXTT3=
EXTT4=
EXTT5=
EXTT6=
EXTT7=
EXTT8=
EXTT9=
EXTT10=
EXTT11=
EXTT12=
EXTT13=
EXTT14=
EXTT15=
EXTT16=
EXTT17=
EXTT18=
EXTT19=
EXTT20=
EXTT21=
EXTT22=
PLAYORDER=
